<svg width="260" height="260" viewBox="0 0 260 260" fill="none" xmlns="http://www.w3.org/2000/svg">
<path d="M0 130C0 58.203 58.203 0 130 0V0C201.797 0 260 58.203 260 130V130C260 201.797 201.797 260 130 260V260C58.203 260 0 201.797 0 130V130Z" fill="#D9D9D9"/>
<path d="M48.233 188H21.8693L62.0398 71.6364H93.7443L133.858 188H107.494L78.3466 98.2273H77.4375L48.233 188ZM46.5852 142.261H108.858V161.466H46.5852V142.261ZM208.332 105.102C207.878 100.519 205.927 96.9583 202.48 94.4205C199.033 91.8826 194.355 90.6136 188.446 90.6136C184.431 90.6136 181.041 91.1818 178.276 92.3182C175.51 93.4167 173.389 94.9508 171.912 96.9205C170.473 98.8902 169.753 101.125 169.753 103.625C169.677 105.708 170.113 107.527 171.06 109.08C172.045 110.633 173.389 111.977 175.094 113.114C176.798 114.212 178.768 115.178 181.003 116.011C183.238 116.807 185.624 117.489 188.162 118.057L198.616 120.557C203.692 121.693 208.351 123.208 212.594 125.102C216.836 126.996 220.51 129.326 223.616 132.091C226.723 134.856 229.128 138.114 230.832 141.864C232.575 145.614 233.465 149.913 233.503 154.761C233.465 161.883 231.647 168.057 228.048 173.284C224.488 178.473 219.336 182.508 212.594 185.386C205.889 188.227 197.802 189.648 188.332 189.648C178.938 189.648 170.757 188.208 163.787 185.33C156.855 182.451 151.438 178.189 147.537 172.545C143.673 166.864 141.647 159.837 141.457 151.466H165.264C165.529 155.367 166.647 158.625 168.616 161.239C170.624 163.814 173.295 165.765 176.628 167.091C179.999 168.379 183.806 169.023 188.048 169.023C192.215 169.023 195.832 168.417 198.901 167.205C202.007 165.992 204.412 164.307 206.116 162.148C207.821 159.989 208.673 157.508 208.673 154.705C208.673 152.091 207.897 149.894 206.344 148.114C204.829 146.333 202.594 144.818 199.639 143.568C196.723 142.318 193.143 141.182 188.901 140.159L176.23 136.977C166.42 134.591 158.673 130.86 152.991 125.784C147.31 120.708 144.488 113.871 144.526 105.273C144.488 98.2273 146.363 92.072 150.151 86.8068C153.976 81.5417 159.223 77.4318 165.889 74.4773C172.556 71.5227 180.132 70.0455 188.616 70.0455C197.253 70.0455 204.791 71.5227 211.23 74.4773C217.707 77.4318 222.745 81.5417 226.344 86.8068C229.942 92.072 231.798 98.1705 231.912 105.102H208.332Z" fill="black"/>
</svg>
